Coordinates
version=1
nRows=17
nColumns=24
inDegrees=yes

Units are S.I. units (second, meters, Newtons, ...)
Angles are in degrees.

endheader
time	pelvis_tilt	pelvis_list	pelvis_rotation	pelvis_tx	pelvis_ty	pelvis_tz	hip_flexion_r	hip_adduction_r	hip_rotation_r	knee_angle_r	ankle_angle_r	subtalar_angle_r	mtp_angle_r	hip_flexion_l	hip_adduction_l	hip_rotation_l	knee_angle_l	ankle_angle_l	subtalar_angle_l	mtp_angle_l	lumbar_extension	lumbar_bending	lumbar_rotation
      1.20450000	     -2.36372628	     -3.19157054	     -7.53078512	      0.08034483	      0.95273569	      0.35629168	    -17.24557797	      4.70928124	     -1.91277893	     -9.53393871	     13.18405937	      6.57300316	     11.08676868	     29.22787791	     -4.28765279	     -8.56222934	     -0.01411232	      5.86485465	     -2.12632403	      0.04359333	     -0.60467946	      6.89328399	     11.77667218
      1.20866667	     -2.46721444	     -3.05241375	     -7.59907393	      0.08650801	      0.95191284	      0.35607461	    -17.35209220	      4.48766112	     -1.90813362	     -9.78203951	     13.00286767	      6.51646804	     11.15489129	     29.37063228	     -4.15690194	     -8.32674547	     -0.48499203	      5.55209300	     -2.73389590	      0.05868479	     -0.42549637	      6.73936973	     11.90219910
      1.21283333	     -2.55621293	     -2.88493419	     -7.66778273	      0.09272370	      0.95114792	      0.35584672	    -17.45476768	      4.22967779	     -1.93332088	    -10.06295984	     12.79910090	      6.46992491	     11.26689241	     29.49985488	     -3.99674895	     -8.11177524	     -0.99552863	      5.23093795	     -3.33471293	      0.09053712	     -0.25645053	      6.53667125	     11.97450881
      1.21700000	     -2.65773073	     -2.70750372	     -7.72544260	      0.09897669	      0.95040446	      0.35559568	    -17.53130993	      3.96535852	     -1.96648278	    -10.36187873	     12.55688782	      6.41478493	     11.39472044	     29.65562118	     -3.82295286	     -7.90451114	     -1.55854274	      4.86741351	     -3.91214757	      0.12826057	     -0.06078378	      6.32348186	     12.04420772
      1.22116667	     -2.76609021	     -2.51617674	     -7.77610525	      0.10527276	      0.94969370	      0.35532530	    -17.58706454	      3.68807957	     -2.00360395	    -10.68274032	     12.29256936	      6.34704498	     11.54690850	     29.82056659	     -3.62983794	     -7.68784903	     -2.14806974	      4.44945691	     -4.53564946	      0.17459093	      0.14233127	      6.09793361	     12.11643076
      1.22533333	     -2.87942144	     -2.31514976	     -7.81817156	      0.11158636	      0.94901527	      0.35502719	    -17.62276847	      3.40210231	     -2.03980908	    -11.02381535	     12.00040978	      6.26432973	     11.72473728	     29.99663799	     -3.42044523	     -7.45758329	     -2.76244264	      3.98307055	     -5.18599364	      0.22872833	      0.35422937	      5.86059996	     12.18267377
      1.22950000	     -2.99997330	     -2.10962370	     -7.85137053	      0.11793167	      0.94837307	      0.35470055	    -17.63177144	      3.11339584	     -2.08336735	    -11.39767975	     11.69069003	      6.17506497	     11.94965635	     30.18346967	     -3.19879841	     -7.21366355	     -3.39780376	      3.47694392	     -5.88149241	      0.29726010	      0.57516180	      5.62453695	     12.24449847
      1.23366667	     -3.10246113	     -1.88758126	     -7.88074433	      0.12429458	      0.94779390	      0.35434382	    -17.62666003	      2.79992307	     -2.15739033	    -11.83169305	     11.36818203	      6.06467161	     12.31885192	     30.35059577	     -2.95119975	     -6.96138652	     -4.04220754	      2.95221441	     -6.62440598	      0.41186102	      0.76730744	      5.36829478	     12.29496989
      1.23783333	     -3.25613830	     -1.66465984	     -7.89055528	      0.13070647	      0.94720164	      0.35397990	    -17.57995834	      2.50632460	     -2.17489060	    -12.22655675	     10.95562560	      5.94626212	     12.60897152	     30.59210110	     -2.70355515	     -6.74896025	     -4.73098844	      2.36084662	     -7.25305044	      0.49613639	      1.04617020	      5.11394357	     12.35301392
      1.24200000	     -3.36993515	     -1.43210873	     -7.89781098	      0.13710985	      0.94670453	      0.35357164	    -17.51841999	      2.18698178	     -2.25661822	    -12.73259914	     10.56599917	      5.79268810	     13.04768749	     30.78050127	     -2.43148927	     -6.50257405	     -5.40541238	      1.76905677	     -7.98592291	      0.62336727	      1.26103278	      4.84583628	     12.39660119
      1.24616667	     -3.49297696	     -1.16499431	     -7.88199265	      0.14360469	      0.94622935	      0.35313096	    -17.44715156	      1.83276221	     -2.38477231	    -13.21266488	     10.04393294	      5.70737829	     17.67791895	     30.99423696	     -2.12046537	     -6.34759253	     -6.10984352	      1.13998470	     -8.55906027	      1.96552403	      1.52041352	      4.52694350	     12.41482378
      1.25033333	     -3.63638300	     -0.93247887	     -7.86543569	      0.15005204	      0.94580146	      0.35270426	    -17.33830702	      1.53452886	     -2.38232650	    -13.73032763	      9.54166676	      5.43818147	     17.73171464	     31.23558785	     -1.84303147	     -6.13548312	     -6.83909728	      0.54821288	     -9.16294788	      1.96254355	      1.78005173	      4.26143331	     12.47046169
      1.25450000	     -3.78293705	     -0.68166126	     -7.83352638	      0.15654017	      0.94541493	      0.35223716	    -17.19796076	      1.21651382	     -2.41131222	    -14.29362663	      9.01784533	      5.23890514	     17.83192722	     31.47998753	     -1.53764308	     -5.94157639	     -7.57128832	     -0.05693822	     -9.75417954	      1.96855014	      2.05760019	      3.97114300	     12.50620808
      1.25866667	     -3.92519403	     -0.42292052	     -7.79294849	      0.16303515	      0.94508596	      0.35174490	    -17.03271814	      0.88994176	     -2.44821027	    -14.90127037	      8.45958217	      5.03899538	     17.98109710	     31.72173771	     -1.21820020	     -5.75094337	     -8.31206542	     -0.64728309	    -10.32265837	      1.98185140	      2.33080503	      3.66925111	     12.53683885
      1.26283333	     -4.04170973	     -0.12963464	     -7.73219259	      0.16956221	      0.94482757	      0.35118636	    -16.85374123	      0.51885305	     -2.54298534	    -15.58360190	      7.92841401	      4.84137070	     18.41191171	     31.92054040	     -0.84268996	     -5.52876396	     -9.02076434	     -1.21639288	    -10.94274926	      2.03242096	      2.57368918	      3.32325852	     12.56046384
      1.26700000	     -4.18713043	      0.11555294	     -7.68106630	      0.17604012	      0.94459902	      0.35065598	    -16.61700021	      0.20641313	     -2.55700130	    -16.29945747	      7.21916372	      4.63953980	     18.68759746	     32.17668267	     -0.53463897	     -5.38025006	     -9.79912798	     -1.71209532	    -11.35754460	      2.05915703	      2.83575357	      3.05419036	     12.58062238
      1.27116667	     -4.31419679	      0.40189754	     -7.59789677	      0.18260466	      0.94443626	      0.35009054	    -16.39904972	     -0.14124747	     -2.58674323	    -17.00677306	      6.50972228	      4.41600583	     18.90978702	     32.41290016	     -0.17073756	     -5.26977638	    -10.58090965	     -2.18525209	    -11.73398774	      2.07661766	      3.10243699	      2.71288465	     12.59738600
